<mxfile host="65bd71144e">
    <diagram id="mYASFlPVcU_RVIVPUH-9" name="Page-1">
        <mxGraphModel dx="1040" dy="610" grid="0" gridSize="10" guides="1" tooltips="1" connect="1" arrows="1" fold="1" page="1" pageScale="1" pageWidth="1100" pageHeight="850" background="#222222" math="0" shadow="0">
            <root>
                <mxCell id="0"/>
                <mxCell id="1" parent="0"/>
                <mxCell id="189" value="Repo" style="rounded=0;whiteSpace=wrap;html=1;align=center;verticalAlign=top;fontFamily=Helvetica;fontSize=12;fontColor=#FFFFFF;labelBackgroundColor=none;fillColor=none;strokeColor=#FFFFFF;" vertex="1" parent="1">
                    <mxGeometry x="709" y="74" width="231" height="142" as="geometry"/>
                </mxCell>
                <mxCell id="70" value="Clone" style="edgeStyle=none;shape=connector;rounded=1;html=1;strokeColor=#d79b00;align=center;verticalAlign=middle;fontFamily=Helvetica;fontSize=28;fontColor=#D79B00;labelBackgroundColor=none;endArrow=classic;fontStyle=1;fillColor=#ffe6cc;strokeWidth=2;exitX=0.228;exitY=-0.002;exitDx=0;exitDy=0;exitPerimeter=0;entryX=0.03;entryY=1.017;entryDx=0;entryDy=0;entryPerimeter=0;" parent="1" source="59" target="60" edge="1">
                    <mxGeometry x="-0.4444" relative="1" as="geometry">
                        <mxPoint x="333.5" y="684" as="sourcePoint"/>
                        <mxPoint x="327" y="603" as="targetPoint"/>
                        <mxPoint as="offset"/>
                    </mxGeometry>
                </mxCell>
                <mxCell id="59" value="Repo" style="rounded=0;whiteSpace=wrap;html=1;align=center;verticalAlign=top;fontFamily=Helvetica;fontSize=12;fontColor=#FFFFFF;labelBackgroundColor=none;fillColor=none;strokeColor=#FFFFFF;" parent="1" vertex="1">
                    <mxGeometry x="229" y="684" width="250" height="142" as="geometry"/>
                </mxCell>
                <mxCell id="42" value="Repo" style="rounded=0;whiteSpace=wrap;html=1;align=center;verticalAlign=top;fontFamily=Helvetica;fontSize=12;fontColor=#FFFFFF;labelBackgroundColor=none;fillColor=none;strokeColor=#FFFFFF;" parent="1" vertex="1">
                    <mxGeometry x="1469" y="274" width="294" height="121" as="geometry"/>
                </mxCell>
                <mxCell id="13" style="edgeStyle=none;shape=connector;rounded=1;html=1;strokeColor=#FFFFFF;align=center;verticalAlign=middle;fontFamily=Helvetica;fontSize=12;fontColor=#FFFFFF;labelBackgroundColor=none;endArrow=classic;" parent="1" target="11" edge="1">
                    <mxGeometry relative="1" as="geometry">
                        <mxPoint x="1080.0011226343856" y="169.46284661616926" as="sourcePoint"/>
                    </mxGeometry>
                </mxCell>
                <mxCell id="19" style="edgeStyle=none;shape=connector;rounded=1;html=1;strokeColor=#FFFFFF;align=center;verticalAlign=middle;fontFamily=Helvetica;fontSize=12;fontColor=#FFFFFF;labelBackgroundColor=none;endArrow=classic;" parent="1" target="17" edge="1">
                    <mxGeometry relative="1" as="geometry">
                        <mxPoint x="1560.003550686562" y="320.27834364178534" as="sourcePoint"/>
                    </mxGeometry>
                </mxCell>
                <mxCell id="14" value="f_products_list" style="edgeStyle=none;shape=connector;rounded=1;html=1;strokeColor=#FFFFFF;align=center;verticalAlign=middle;fontFamily=Helvetica;fontSize=12;fontColor=#FFFFFF;labelBackgroundColor=none;endArrow=classic;" parent="1" source="11" target="12" edge="1">
                    <mxGeometry x="-1" y="72" relative="1" as="geometry">
                        <mxPoint x="-72" y="69" as="offset"/>
                    </mxGeometry>
                </mxCell>
                <mxCell id="11" value="" style="ellipse;whiteSpace=wrap;html=1;aspect=fixed;rounded=0;strokeColor=none;align=center;verticalAlign=middle;fontFamily=Helvetica;fontSize=12;labelBackgroundColor=none;fillColor=#60a917;fontColor=#ffffff;" parent="1" vertex="1">
                    <mxGeometry x="1103.52" y="98" width="22" height="22" as="geometry"/>
                </mxCell>
                <mxCell id="15" style="edgeStyle=none;shape=connector;rounded=1;html=1;strokeColor=#FFFFFF;align=center;verticalAlign=middle;fontFamily=Helvetica;fontSize=12;fontColor=#FFFFFF;labelBackgroundColor=none;endArrow=classic;" parent="1" source="12" target="10" edge="1">
                    <mxGeometry relative="1" as="geometry"/>
                </mxCell>
                <mxCell id="12" value="" style="ellipse;whiteSpace=wrap;html=1;aspect=fixed;rounded=0;strokeColor=none;align=center;verticalAlign=middle;fontFamily=Helvetica;fontSize=12;labelBackgroundColor=none;fillColor=#60a917;fontColor=#ffffff;" parent="1" vertex="1">
                    <mxGeometry x="1183.52" y="98" width="22" height="22" as="geometry"/>
                </mxCell>
                <mxCell id="16" value="f_products_save" style="edgeStyle=none;shape=connector;rounded=1;html=1;strokeColor=#FFFFFF;align=center;verticalAlign=middle;fontFamily=Helvetica;fontSize=12;fontColor=#FFFFFF;labelBackgroundColor=none;endArrow=classic;" parent="1" source="17" target="18" edge="1">
                    <mxGeometry x="-1" y="72" relative="1" as="geometry">
                        <mxPoint x="-72" y="69" as="offset"/>
                    </mxGeometry>
                </mxCell>
                <mxCell id="17" value="" style="ellipse;whiteSpace=wrap;html=1;aspect=fixed;rounded=0;strokeColor=none;align=center;verticalAlign=middle;fontFamily=Helvetica;fontSize=12;labelBackgroundColor=none;fillColor=#0050ef;fontColor=#ffffff;" parent="1" vertex="1">
                    <mxGeometry x="1592.76" y="359" width="22" height="22" as="geometry"/>
                </mxCell>
                <mxCell id="18" value="" style="ellipse;whiteSpace=wrap;html=1;aspect=fixed;rounded=0;strokeColor=none;align=center;verticalAlign=middle;fontFamily=Helvetica;fontSize=12;labelBackgroundColor=none;fillColor=#0050ef;fontColor=#ffffff;" parent="1" vertex="1">
                    <mxGeometry x="1672.76" y="359" width="22" height="22" as="geometry"/>
                </mxCell>
                <mxCell id="22" value="Dev1" style="shape=umlActor;verticalLabelPosition=bottom;verticalAlign=top;html=1;outlineConnect=0;rounded=0;align=center;fontFamily=Helvetica;fontSize=25;fontColor=#FFFFFF;labelBackgroundColor=none;fillColor=#AAAAAA;strokeColor=#FFFFFF;" parent="1" vertex="1">
                    <mxGeometry x="74.5" y="60.5" width="61.25" height="122.5" as="geometry"/>
                </mxCell>
                <mxCell id="23" value="" style="endArrow=none;html=1;rounded=1;strokeColor=#FFFFFF;align=center;verticalAlign=middle;fontFamily=Helvetica;fontSize=12;fontColor=#FFFFFF;labelBackgroundColor=none;edgeStyle=none;" parent="1" edge="1">
                    <mxGeometry width="50" height="50" relative="1" as="geometry">
                        <mxPoint x="213" y="812.7058823529412" as="sourcePoint"/>
                        <mxPoint x="218" y="3" as="targetPoint"/>
                    </mxGeometry>
                </mxCell>
                <mxCell id="25" value="main" style="endArrow=none;rounded=1;strokeColor=#FFFFFF;align=center;verticalAlign=middle;fontFamily=Helvetica;fontSize=18;fontColor=#FFFFFF;labelBackgroundColor=none;edgeStyle=none;entryX=0.131;entryY=0.5;entryDx=0;entryDy=0;entryPerimeter=0;" parent="1" target="10" edge="1">
                    <mxGeometry x="-1" y="33" width="50" height="50" relative="1" as="geometry">
                        <mxPoint x="1050" y="178" as="sourcePoint"/>
                        <mxPoint x="1263" y="176" as="targetPoint"/>
                        <mxPoint x="-33" y="30" as="offset"/>
                    </mxGeometry>
                </mxCell>
                <mxCell id="26" value="" style="ellipse;aspect=fixed;rounded=0;strokeColor=none;align=center;verticalAlign=middle;fontFamily=Helvetica;fontSize=12;fontColor=#FFFFFF;labelBackgroundColor=none;fillColor=default;" parent="1" vertex="1">
                    <mxGeometry x="1067" y="168" width="22" height="22" as="geometry"/>
                </mxCell>
                <mxCell id="10" value="" style="ellipse;whiteSpace=wrap;html=1;aspect=fixed;rounded=0;strokeColor=none;align=center;verticalAlign=middle;fontFamily=Helvetica;fontSize=12;fontColor=#ffffff;labelBackgroundColor=none;fillColor=#60a917;" parent="1" vertex="1">
                    <mxGeometry x="1233.52" y="168" width="22" height="22" as="geometry"/>
                </mxCell>
                <mxCell id="31" value="Repo" style="rounded=0;whiteSpace=wrap;html=1;align=center;verticalAlign=top;fontFamily=Helvetica;fontSize=12;fontColor=#FFFFFF;labelBackgroundColor=none;fillColor=none;strokeColor=#FFFFFF;" parent="1" vertex="1">
                    <mxGeometry x="989" y="64" width="289" height="142" as="geometry"/>
                </mxCell>
                <mxCell id="32" value="" style="endArrow=none;html=1;rounded=1;strokeColor=#FFFFFF;align=center;verticalAlign=middle;fontFamily=Helvetica;fontSize=12;fontColor=#FFFFFF;labelBackgroundColor=none;edgeStyle=none;" parent="1" edge="1">
                    <mxGeometry width="50" height="50" relative="1" as="geometry">
                        <mxPoint x="18" y="238" as="sourcePoint"/>
                        <mxPoint x="3272" y="248" as="targetPoint"/>
                    </mxGeometry>
                </mxCell>
                <mxCell id="38" value="Dev2" style="shape=umlActor;verticalLabelPosition=bottom;verticalAlign=top;html=1;outlineConnect=0;rounded=0;align=center;fontFamily=Helvetica;fontSize=25;fontColor=#FFFFFF;labelBackgroundColor=none;fillColor=#AAAAAA;strokeColor=#FFFFFF;" parent="1" vertex="1">
                    <mxGeometry x="66" y="254" width="61.5" height="123" as="geometry"/>
                </mxCell>
                <mxCell id="39" value="main" style="endArrow=none;rounded=1;strokeColor=#FFFFFF;align=center;verticalAlign=middle;fontFamily=Helvetica;fontSize=18;fontColor=#FFFFFF;labelBackgroundColor=none;edgeStyle=none;" parent="1" edge="1">
                    <mxGeometry x="-1" y="33" width="50" height="50" relative="1" as="geometry">
                        <mxPoint x="1530" y="308" as="sourcePoint"/>
                        <mxPoint x="1714.7601995881296" y="309.93373614209713" as="targetPoint"/>
                        <mxPoint x="-33" y="30" as="offset"/>
                    </mxGeometry>
                </mxCell>
                <mxCell id="40" value="" style="ellipse;aspect=fixed;rounded=0;strokeColor=none;align=center;verticalAlign=middle;fontFamily=Helvetica;fontSize=12;fontColor=#FFFFFF;labelBackgroundColor=none;fillColor=default;" parent="1" vertex="1">
                    <mxGeometry x="1547" y="298" width="22" height="22" as="geometry"/>
                </mxCell>
                <mxCell id="43" value="" style="endArrow=none;html=1;rounded=1;strokeColor=#FFFFFF;align=center;verticalAlign=middle;fontFamily=Helvetica;fontSize=12;fontColor=#FFFFFF;labelBackgroundColor=none;edgeStyle=none;" parent="1" edge="1">
                    <mxGeometry width="50" height="50" relative="1" as="geometry">
                        <mxPoint x="16" y="608" as="sourcePoint"/>
                        <mxPoint x="3274" y="626" as="targetPoint"/>
                    </mxGeometry>
                </mxCell>
                <mxCell id="46" value="" style="endArrow=none;html=1;rounded=1;strokeColor=#FFFFFF;align=center;verticalAlign=middle;fontFamily=Helvetica;fontSize=12;fontColor=#FFFFFF;labelBackgroundColor=none;edgeStyle=none;" parent="1" edge="1">
                    <mxGeometry width="50" height="50" relative="1" as="geometry">
                        <mxPoint x="8" y="418" as="sourcePoint"/>
                        <mxPoint x="3274" y="435" as="targetPoint"/>
                    </mxGeometry>
                </mxCell>
                <mxCell id="47" value="Test&#xa;environment" style="fontColor=#FFFFFF;verticalAlign=top;verticalLabelPosition=bottom;labelPosition=center;align=center;outlineConnect=0;fillColor=#CCCCCC;strokeColor=#FFFFFF;gradientColor=none;gradientDirection=north;strokeWidth=2;shape=mxgraph.networks.desktop_pc;rounded=0;fontFamily=Helvetica;fontSize=25;labelBackgroundColor=none;" parent="1" vertex="1">
                    <mxGeometry x="87" y="452" width="36" height="72" as="geometry"/>
                </mxCell>
                <mxCell id="48" value="Production&#xa;environment" style="fontColor=#FFFFFF;verticalAlign=top;verticalLabelPosition=bottom;labelPosition=center;align=center;outlineConnect=0;fillColor=#CCCCCC;strokeColor=#FFFFFF;gradientColor=none;gradientDirection=north;strokeWidth=2;shape=mxgraph.networks.desktop_pc;rounded=0;fontFamily=Helvetica;fontSize=25;labelBackgroundColor=none;" parent="1" vertex="1">
                    <mxGeometry x="87" y="686" width="36" height="72" as="geometry"/>
                </mxCell>
                <mxCell id="56" value="main" style="endArrow=none;rounded=1;strokeColor=#FFFFFF;align=center;verticalAlign=middle;fontFamily=Helvetica;fontSize=18;fontColor=#FFFFFF;labelBackgroundColor=none;edgeStyle=none;entryX=0.131;entryY=0.5;entryDx=0;entryDy=0;entryPerimeter=0;" parent="1" edge="1">
                    <mxGeometry x="-1" y="33" width="50" height="50" relative="1" as="geometry">
                        <mxPoint x="290" y="798" as="sourcePoint"/>
                        <mxPoint x="476.4019999999998" y="799" as="targetPoint"/>
                        <mxPoint x="-33" y="30" as="offset"/>
                    </mxGeometry>
                </mxCell>
                <mxCell id="57" value="" style="ellipse;aspect=fixed;rounded=0;strokeColor=none;align=center;verticalAlign=middle;fontFamily=Helvetica;fontSize=12;fontColor=#FFFFFF;labelBackgroundColor=none;fillColor=default;" parent="1" vertex="1">
                    <mxGeometry x="307" y="788" width="22" height="22" as="geometry"/>
                </mxCell>
                <mxCell id="60" value="Repo" style="rounded=0;whiteSpace=wrap;html=1;align=center;verticalAlign=top;fontFamily=Helvetica;fontSize=12;fontColor=#FFFFFF;labelBackgroundColor=none;fillColor=none;strokeColor=#FFFFFF;" parent="1" vertex="1">
                    <mxGeometry x="289" y="460" width="250" height="142" as="geometry"/>
                </mxCell>
                <mxCell id="61" value="main" style="endArrow=none;rounded=1;strokeColor=#FFFFFF;align=center;verticalAlign=middle;fontFamily=Helvetica;fontSize=18;fontColor=#FFFFFF;labelBackgroundColor=none;edgeStyle=none;entryX=0.131;entryY=0.5;entryDx=0;entryDy=0;entryPerimeter=0;" parent="1" edge="1">
                    <mxGeometry x="-1" y="33" width="50" height="50" relative="1" as="geometry">
                        <mxPoint x="350" y="574" as="sourcePoint"/>
                        <mxPoint x="536.4019999999998" y="575" as="targetPoint"/>
                        <mxPoint x="-33" y="30" as="offset"/>
                    </mxGeometry>
                </mxCell>
                <mxCell id="62" value="" style="ellipse;aspect=fixed;rounded=0;strokeColor=none;align=center;verticalAlign=middle;fontFamily=Helvetica;fontSize=12;fontColor=#FFFFFF;labelBackgroundColor=none;fillColor=default;" parent="1" vertex="1">
                    <mxGeometry x="367" y="564" width="22" height="22" as="geometry"/>
                </mxCell>
                <mxCell id="63" value="Repo" style="rounded=0;whiteSpace=wrap;html=1;align=center;verticalAlign=top;fontFamily=Helvetica;fontSize=12;fontColor=#FFFFFF;labelBackgroundColor=none;fillColor=none;strokeColor=#FFFFFF;" parent="1" vertex="1">
                    <mxGeometry x="409" y="260" width="250" height="142" as="geometry"/>
                </mxCell>
                <mxCell id="64" value="main" style="endArrow=none;rounded=1;strokeColor=#FFFFFF;align=center;verticalAlign=middle;fontFamily=Helvetica;fontSize=18;fontColor=#FFFFFF;labelBackgroundColor=none;edgeStyle=none;entryX=0.131;entryY=0.5;entryDx=0;entryDy=0;entryPerimeter=0;" parent="1" edge="1">
                    <mxGeometry x="-1" y="33" width="50" height="50" relative="1" as="geometry">
                        <mxPoint x="470" y="374" as="sourcePoint"/>
                        <mxPoint x="656.4019999999998" y="375" as="targetPoint"/>
                        <mxPoint x="-33" y="30" as="offset"/>
                    </mxGeometry>
                </mxCell>
                <mxCell id="65" value="" style="ellipse;aspect=fixed;rounded=0;strokeColor=none;align=center;verticalAlign=middle;fontFamily=Helvetica;fontSize=12;fontColor=#FFFFFF;labelBackgroundColor=none;fillColor=default;" parent="1" vertex="1">
                    <mxGeometry x="487" y="364" width="22" height="22" as="geometry"/>
                </mxCell>
                <mxCell id="66" value="Repo" style="rounded=0;whiteSpace=wrap;html=1;align=center;verticalAlign=top;fontFamily=Helvetica;fontSize=12;fontColor=#FFFFFF;labelBackgroundColor=none;fillColor=none;strokeColor=#FFFFFF;" parent="1" vertex="1">
                    <mxGeometry x="349" y="60" width="250" height="142" as="geometry"/>
                </mxCell>
                <mxCell id="67" value="main" style="endArrow=none;rounded=1;strokeColor=#FFFFFF;align=center;verticalAlign=middle;fontFamily=Helvetica;fontSize=18;fontColor=#FFFFFF;labelBackgroundColor=none;edgeStyle=none;" parent="1" edge="1">
                    <mxGeometry x="-1" y="33" width="50" height="50" relative="1" as="geometry">
                        <mxPoint x="410" y="174" as="sourcePoint"/>
                        <mxPoint x="545" y="175" as="targetPoint"/>
                        <mxPoint x="-33" y="30" as="offset"/>
                    </mxGeometry>
                </mxCell>
                <mxCell id="68" value="" style="ellipse;aspect=fixed;rounded=0;strokeColor=none;align=center;verticalAlign=middle;fontFamily=Helvetica;fontSize=12;fontColor=#FFFFFF;labelBackgroundColor=none;fillColor=default;" parent="1" vertex="1">
                    <mxGeometry x="427" y="164" width="22" height="22" as="geometry"/>
                </mxCell>
                <mxCell id="69" value="" style="endArrow=none;html=1;rounded=1;strokeColor=#FFFFFF;align=center;verticalAlign=middle;fontFamily=Helvetica;fontSize=12;fontColor=#FFFFFF;labelBackgroundColor=none;edgeStyle=none;" parent="1" edge="1">
                    <mxGeometry width="50" height="50" relative="1" as="geometry">
                        <mxPoint x="673" y="842.7058823529412" as="sourcePoint"/>
                        <mxPoint x="678" y="33" as="targetPoint"/>
                    </mxGeometry>
                </mxCell>
                <mxCell id="72" value="Clone" style="edgeStyle=none;shape=connector;rounded=1;html=1;entryX=0.75;entryY=1;entryDx=0;entryDy=0;strokeColor=#d79b00;align=center;verticalAlign=middle;fontFamily=Helvetica;fontSize=28;fontColor=#D79B00;labelBackgroundColor=none;endArrow=classic;fontStyle=1;exitX=0.75;exitY=0;exitDx=0;exitDy=0;fillColor=#ffe6cc;strokeWidth=2;" parent="1" edge="1">
                    <mxGeometry x="-0.8425" relative="1" as="geometry">
                        <mxPoint x="465.7499999999998" y="684" as="sourcePoint"/>
                        <mxPoint x="465.7499999999998" y="392" as="targetPoint"/>
                        <mxPoint as="offset"/>
                    </mxGeometry>
                </mxCell>
                <mxCell id="73" value="Clone" style="edgeStyle=none;shape=connector;rounded=1;html=1;entryX=0.203;entryY=1.017;entryDx=0;entryDy=0;strokeColor=#d79b00;align=center;verticalAlign=middle;fontFamily=Helvetica;fontSize=28;fontColor=#D79B00;labelBackgroundColor=none;endArrow=classic;fontStyle=1;exitX=0.618;exitY=-0.017;exitDx=0;exitDy=0;fillColor=#ffe6cc;strokeWidth=2;exitPerimeter=0;entryPerimeter=0;" parent="1" edge="1">
                    <mxGeometry x="-0.8977" y="-1" relative="1" as="geometry">
                        <mxPoint x="377.60199999999986" y="681.586" as="sourcePoint"/>
                        <mxPoint x="377.66700000000014" y="194.414" as="targetPoint"/>
                        <mxPoint as="offset"/>
                    </mxGeometry>
                </mxCell>
                <mxCell id="80" value="Repo" style="rounded=0;whiteSpace=wrap;html=1;align=center;verticalAlign=top;fontFamily=Helvetica;fontSize=12;fontColor=#FFFFFF;labelBackgroundColor=none;fillColor=none;strokeColor=#FFFFFF;" parent="1" vertex="1">
                    <mxGeometry x="1020" y="437" width="289" height="142" as="geometry"/>
                </mxCell>
                <mxCell id="81" value="main" style="endArrow=none;rounded=1;strokeColor=#FFFFFF;align=center;verticalAlign=middle;fontFamily=Helvetica;fontSize=18;fontColor=#FFFFFF;labelBackgroundColor=none;edgeStyle=none;entryX=0.131;entryY=0.5;entryDx=0;entryDy=0;entryPerimeter=0;" parent="1" edge="1">
                    <mxGeometry x="-1" y="33" width="50" height="50" relative="1" as="geometry">
                        <mxPoint x="1081" y="551" as="sourcePoint"/>
                        <mxPoint x="1267.4019999999998" y="552" as="targetPoint"/>
                        <mxPoint x="-33" y="30" as="offset"/>
                    </mxGeometry>
                </mxCell>
                <mxCell id="82" value="" style="ellipse;aspect=fixed;rounded=0;strokeColor=none;align=center;verticalAlign=middle;fontFamily=Helvetica;fontSize=12;fontColor=#FFFFFF;labelBackgroundColor=none;fillColor=default;" parent="1" vertex="1">
                    <mxGeometry x="1098" y="541" width="22" height="22" as="geometry"/>
                </mxCell>
                <mxCell id="83" value="pull" style="edgeStyle=none;shape=connector;rounded=1;html=1;entryX=1;entryY=0.25;entryDx=0;entryDy=0;strokeColor=#d79b00;align=center;verticalAlign=middle;fontFamily=Helvetica;fontSize=28;fontColor=#D79B00;labelBackgroundColor=none;endArrow=none;fontStyle=1;exitX=0.155;exitY=0.996;exitDx=0;exitDy=0;fillColor=#ffe6cc;strokeWidth=2;exitPerimeter=0;endFill=0;startArrow=classic;startFill=1;" parent="1" target="59" edge="1" source="31">
                    <mxGeometry x="-0.6547" y="-22" relative="1" as="geometry">
                        <mxPoint x="596.7950000000001" y="195" as="sourcePoint"/>
                        <mxPoint x="595.7950000000001" y="684" as="targetPoint"/>
                        <mxPoint as="offset"/>
                    </mxGeometry>
                </mxCell>
                <mxCell id="84" value="push" style="edgeStyle=none;shape=connector;rounded=1;html=1;entryX=0.592;entryY=-0.019;entryDx=0;entryDy=0;strokeColor=#d79b00;align=center;verticalAlign=middle;fontFamily=Helvetica;fontSize=28;fontColor=#D79B00;labelBackgroundColor=none;endArrow=classic;fontStyle=1;exitX=0.75;exitY=0;exitDx=0;exitDy=0;fillColor=#ffe6cc;entryPerimeter=0;strokeWidth=2;" parent="1" edge="1" target="80">
                    <mxGeometry x="-0.7616" y="-25" relative="1" as="geometry">
                        <mxPoint x="1196" y="195" as="sourcePoint"/>
                        <mxPoint x="1195.178" y="456.7159999999999" as="targetPoint"/>
                        <mxPoint as="offset"/>
                    </mxGeometry>
                </mxCell>
                <mxCell id="85" style="edgeStyle=none;shape=connector;rounded=1;html=1;strokeColor=#FFFFFF;align=center;verticalAlign=middle;fontFamily=Helvetica;fontSize=12;fontColor=#FFFFFF;labelBackgroundColor=none;endArrow=classic;" parent="1" target="87" edge="1">
                    <mxGeometry relative="1" as="geometry">
                        <mxPoint x="1111.0011226343856" y="539.4628466161693" as="sourcePoint"/>
                    </mxGeometry>
                </mxCell>
                <mxCell id="86" value="f_products_list" style="edgeStyle=none;shape=connector;rounded=1;html=1;strokeColor=#FFFFFF;align=center;verticalAlign=middle;fontFamily=Helvetica;fontSize=12;fontColor=#FFFFFF;labelBackgroundColor=none;endArrow=classic;" parent="1" source="87" target="89" edge="1">
                    <mxGeometry x="-1" y="72" relative="1" as="geometry">
                        <mxPoint x="-72" y="69" as="offset"/>
                    </mxGeometry>
                </mxCell>
                <mxCell id="87" value="" style="ellipse;whiteSpace=wrap;html=1;aspect=fixed;rounded=0;strokeColor=none;align=center;verticalAlign=middle;fontFamily=Helvetica;fontSize=12;labelBackgroundColor=none;fillColor=#60a917;fontColor=#ffffff;" parent="1" vertex="1">
                    <mxGeometry x="1134.52" y="468" width="22" height="22" as="geometry"/>
                </mxCell>
                <mxCell id="88" style="edgeStyle=none;shape=connector;rounded=1;html=1;strokeColor=#FFFFFF;align=center;verticalAlign=middle;fontFamily=Helvetica;fontSize=12;fontColor=#FFFFFF;labelBackgroundColor=none;endArrow=classic;" parent="1" source="89" edge="1">
                    <mxGeometry relative="1" as="geometry">
                        <mxPoint x="1269" y="540" as="targetPoint"/>
                    </mxGeometry>
                </mxCell>
                <mxCell id="89" value="" style="ellipse;whiteSpace=wrap;html=1;aspect=fixed;rounded=0;strokeColor=none;align=center;verticalAlign=middle;fontFamily=Helvetica;fontSize=12;labelBackgroundColor=none;fillColor=#60a917;fontColor=#ffffff;" parent="1" vertex="1">
                    <mxGeometry x="1214.52" y="468" width="22" height="22" as="geometry"/>
                </mxCell>
                <mxCell id="90" value="" style="ellipse;whiteSpace=wrap;html=1;aspect=fixed;rounded=0;strokeColor=none;align=center;verticalAlign=middle;fontFamily=Helvetica;fontSize=12;fontColor=#ffffff;labelBackgroundColor=none;fillColor=#60a917;" parent="1" vertex="1">
                    <mxGeometry x="1264.52" y="538" width="22" height="22" as="geometry"/>
                </mxCell>
                <mxCell id="91" value="push" style="edgeStyle=none;shape=connector;rounded=1;html=1;entryX=0.806;entryY=-0.035;entryDx=0;entryDy=0;strokeColor=#d79b00;align=center;verticalAlign=middle;fontFamily=Helvetica;fontSize=28;fontColor=#D79B00;labelBackgroundColor=none;endArrow=classic;fontStyle=1;exitX=1;exitY=0.5;exitDx=0;exitDy=0;fillColor=#ffe6cc;strokeWidth=2;entryPerimeter=0;" parent="1" source="31" target="92" edge="1">
                    <mxGeometry x="-0.8492" y="28" relative="1" as="geometry">
                        <mxPoint x="1176" y="195" as="sourcePoint"/>
                        <mxPoint x="1174.538" y="685.988" as="targetPoint"/>
                        <mxPoint as="offset"/>
                    </mxGeometry>
                </mxCell>
                <mxCell id="92" value="Repo" style="rounded=0;whiteSpace=wrap;html=1;align=center;verticalAlign=top;fontFamily=Helvetica;fontSize=12;fontColor=#FFFFFF;labelBackgroundColor=none;fillColor=none;strokeColor=#FFFFFF;" parent="1" vertex="1">
                    <mxGeometry x="1129" y="687" width="289" height="142" as="geometry"/>
                </mxCell>
                <mxCell id="93" value="main" style="endArrow=none;rounded=1;strokeColor=#FFFFFF;align=center;verticalAlign=middle;fontFamily=Helvetica;fontSize=18;fontColor=#FFFFFF;labelBackgroundColor=none;edgeStyle=none;entryX=0.131;entryY=0.5;entryDx=0;entryDy=0;entryPerimeter=0;" parent="1" edge="1">
                    <mxGeometry x="-1" y="33" width="50" height="50" relative="1" as="geometry">
                        <mxPoint x="1180" y="801" as="sourcePoint"/>
                        <mxPoint x="1366.4019999999998" y="802" as="targetPoint"/>
                        <mxPoint x="-33" y="30" as="offset"/>
                    </mxGeometry>
                </mxCell>
                <mxCell id="94" value="" style="ellipse;aspect=fixed;rounded=0;strokeColor=none;align=center;verticalAlign=middle;fontFamily=Helvetica;fontSize=12;fontColor=#FFFFFF;labelBackgroundColor=none;fillColor=default;" parent="1" vertex="1">
                    <mxGeometry x="1197" y="791" width="22" height="22" as="geometry"/>
                </mxCell>
                <mxCell id="95" style="edgeStyle=none;shape=connector;rounded=1;html=1;strokeColor=#FFFFFF;align=center;verticalAlign=middle;fontFamily=Helvetica;fontSize=12;fontColor=#FFFFFF;labelBackgroundColor=none;endArrow=classic;" parent="1" target="97" edge="1">
                    <mxGeometry relative="1" as="geometry">
                        <mxPoint x="1210.0011226343856" y="789.4628466161693" as="sourcePoint"/>
                    </mxGeometry>
                </mxCell>
                <mxCell id="96" value="f_products_list" style="edgeStyle=none;shape=connector;rounded=1;html=1;strokeColor=#FFFFFF;align=center;verticalAlign=middle;fontFamily=Helvetica;fontSize=12;fontColor=#FFFFFF;labelBackgroundColor=none;endArrow=classic;" parent="1" source="97" target="99" edge="1">
                    <mxGeometry x="-1" y="72" relative="1" as="geometry">
                        <mxPoint x="-72" y="69" as="offset"/>
                    </mxGeometry>
                </mxCell>
                <mxCell id="97" value="" style="ellipse;whiteSpace=wrap;html=1;aspect=fixed;rounded=0;strokeColor=none;align=center;verticalAlign=middle;fontFamily=Helvetica;fontSize=12;labelBackgroundColor=none;fillColor=#60a917;fontColor=#ffffff;" parent="1" vertex="1">
                    <mxGeometry x="1233.52" y="718" width="22" height="22" as="geometry"/>
                </mxCell>
                <mxCell id="98" style="edgeStyle=none;shape=connector;rounded=1;html=1;strokeColor=#FFFFFF;align=center;verticalAlign=middle;fontFamily=Helvetica;fontSize=12;fontColor=#FFFFFF;labelBackgroundColor=none;endArrow=classic;" parent="1" edge="1">
                    <mxGeometry relative="1" as="geometry">
                        <mxPoint x="1368" y="790" as="targetPoint"/>
                        <mxPoint x="1330.8504274678353" y="737.9958706121861" as="sourcePoint"/>
                    </mxGeometry>
                </mxCell>
                <mxCell id="99" value="" style="ellipse;whiteSpace=wrap;html=1;aspect=fixed;rounded=0;strokeColor=none;align=center;verticalAlign=middle;fontFamily=Helvetica;fontSize=12;labelBackgroundColor=none;fillColor=#60a917;fontColor=#ffffff;" parent="1" vertex="1">
                    <mxGeometry x="1313.52" y="718" width="22" height="22" as="geometry"/>
                </mxCell>
                <mxCell id="100" value="" style="ellipse;whiteSpace=wrap;html=1;aspect=fixed;rounded=0;strokeColor=none;align=center;verticalAlign=middle;fontFamily=Helvetica;fontSize=12;fontColor=#ffffff;labelBackgroundColor=none;fillColor=#60a917;" parent="1" vertex="1">
                    <mxGeometry x="1363.52" y="788" width="22" height="22" as="geometry"/>
                </mxCell>
                <mxCell id="101" value="Repo" style="rounded=0;whiteSpace=wrap;html=1;align=center;verticalAlign=top;fontFamily=Helvetica;fontSize=12;fontColor=#FFFFFF;labelBackgroundColor=none;fillColor=none;strokeColor=#FFFFFF;" parent="1" vertex="1">
                    <mxGeometry x="1799" y="256" width="337" height="142" as="geometry"/>
                </mxCell>
                <mxCell id="102" style="edgeStyle=none;shape=connector;rounded=1;html=1;strokeColor=#FFFFFF;align=center;verticalAlign=middle;fontFamily=Helvetica;fontSize=12;fontColor=#FFFFFF;labelBackgroundColor=none;endArrow=classic;" parent="1" target="104" edge="1">
                    <mxGeometry relative="1" as="geometry">
                        <mxPoint x="1900.003550686562" y="352.27834364178534" as="sourcePoint"/>
                    </mxGeometry>
                </mxCell>
                <mxCell id="103" value="f_products_save" style="edgeStyle=none;shape=connector;rounded=1;html=1;strokeColor=#FFFFFF;align=center;verticalAlign=middle;fontFamily=Helvetica;fontSize=12;fontColor=#FFFFFF;labelBackgroundColor=none;endArrow=classic;" parent="1" source="104" target="106" edge="1">
                    <mxGeometry x="-1" y="72" relative="1" as="geometry">
                        <mxPoint x="-72" y="69" as="offset"/>
                    </mxGeometry>
                </mxCell>
                <mxCell id="104" value="" style="ellipse;whiteSpace=wrap;html=1;aspect=fixed;rounded=0;strokeColor=none;align=center;verticalAlign=middle;fontFamily=Helvetica;fontSize=12;labelBackgroundColor=none;fillColor=#0050ef;fontColor=#ffffff;" parent="1" vertex="1">
                    <mxGeometry x="1932.7600000000002" y="371" width="22" height="22" as="geometry"/>
                </mxCell>
                <mxCell id="105" style="edgeStyle=none;shape=connector;rounded=1;html=1;strokeColor=#FFFFFF;align=center;verticalAlign=middle;fontFamily=Helvetica;fontSize=12;fontColor=#FFFFFF;labelBackgroundColor=none;endArrow=classic;" parent="1" source="106" target="107" edge="1">
                    <mxGeometry relative="1" as="geometry"/>
                </mxCell>
                <mxCell id="106" value="" style="ellipse;whiteSpace=wrap;html=1;aspect=fixed;rounded=0;strokeColor=none;align=center;verticalAlign=middle;fontFamily=Helvetica;fontSize=12;labelBackgroundColor=none;fillColor=#0050ef;fontColor=#ffffff;" parent="1" vertex="1">
                    <mxGeometry x="2042.7600000000002" y="371" width="22" height="22" as="geometry"/>
                </mxCell>
                <mxCell id="107" value="" style="ellipse;whiteSpace=wrap;html=1;aspect=fixed;rounded=0;strokeColor=#001DBC;align=center;verticalAlign=middle;fontFamily=Helvetica;fontSize=12;fontColor=#ffffff;labelBackgroundColor=none;fillColor=#0050ef;" parent="1" vertex="1">
                    <mxGeometry x="2104.76" y="331" width="22" height="22" as="geometry"/>
                </mxCell>
                <mxCell id="108" value="main" style="endArrow=none;rounded=1;strokeColor=#FFFFFF;align=center;verticalAlign=middle;fontFamily=Helvetica;fontSize=18;fontColor=#FFFFFF;labelBackgroundColor=none;edgeStyle=none;" parent="1" target="107" edge="1">
                    <mxGeometry x="-1" y="33" width="50" height="50" relative="1" as="geometry">
                        <mxPoint x="1870" y="340" as="sourcePoint"/>
                        <mxPoint x="2056.402" y="341.0000000000002" as="targetPoint"/>
                        <mxPoint x="-33" y="30" as="offset"/>
                    </mxGeometry>
                </mxCell>
                <mxCell id="109" value="" style="ellipse;aspect=fixed;rounded=0;strokeColor=none;align=center;verticalAlign=middle;fontFamily=Helvetica;fontSize=12;fontColor=#FFFFFF;labelBackgroundColor=none;fillColor=default;" parent="1" vertex="1">
                    <mxGeometry x="1887" y="330" width="22" height="22" as="geometry"/>
                </mxCell>
                <mxCell id="110" style="edgeStyle=none;shape=connector;rounded=1;html=1;strokeColor=#FFFFFF;align=center;verticalAlign=middle;fontFamily=Helvetica;fontSize=12;fontColor=#FFFFFF;labelBackgroundColor=none;endArrow=classic;" parent="1" target="112" edge="1">
                    <mxGeometry relative="1" as="geometry">
                        <mxPoint x="1902.0011226343856" y="329.46284661616926" as="sourcePoint"/>
                    </mxGeometry>
                </mxCell>
                <mxCell id="111" value="f_products_list" style="edgeStyle=none;shape=connector;rounded=1;html=1;strokeColor=#FFFFFF;align=center;verticalAlign=middle;fontFamily=Helvetica;fontSize=12;fontColor=#FFFFFF;labelBackgroundColor=none;endArrow=classic;" parent="1" source="112" target="114" edge="1">
                    <mxGeometry x="-1" y="72" relative="1" as="geometry">
                        <mxPoint x="-72" y="69" as="offset"/>
                    </mxGeometry>
                </mxCell>
                <mxCell id="112" value="" style="ellipse;whiteSpace=wrap;html=1;aspect=fixed;rounded=0;strokeColor=none;align=center;verticalAlign=middle;fontFamily=Helvetica;fontSize=12;labelBackgroundColor=none;fillColor=#60a917;fontColor=#ffffff;" parent="1" vertex="1">
                    <mxGeometry x="1955.52" y="278" width="22" height="22" as="geometry"/>
                </mxCell>
                <mxCell id="113" style="edgeStyle=none;shape=connector;rounded=1;html=1;strokeColor=#FFFFFF;align=center;verticalAlign=middle;fontFamily=Helvetica;fontSize=12;fontColor=#FFFFFF;labelBackgroundColor=none;endArrow=classic;" parent="1" source="114" target="115" edge="1">
                    <mxGeometry relative="1" as="geometry">
                        <mxPoint x="2090" y="330" as="targetPoint"/>
                    </mxGeometry>
                </mxCell>
                <mxCell id="114" value="" style="ellipse;whiteSpace=wrap;html=1;aspect=fixed;rounded=0;strokeColor=none;align=center;verticalAlign=middle;fontFamily=Helvetica;fontSize=12;labelBackgroundColor=none;fillColor=#60a917;fontColor=#ffffff;" parent="1" vertex="1">
                    <mxGeometry x="2015.52" y="278" width="22" height="22" as="geometry"/>
                </mxCell>
                <mxCell id="115" value="" style="ellipse;whiteSpace=wrap;html=1;aspect=fixed;rounded=0;strokeColor=none;align=center;verticalAlign=middle;fontFamily=Helvetica;fontSize=12;fontColor=#ffffff;labelBackgroundColor=none;fillColor=#60a917;" parent="1" vertex="1">
                    <mxGeometry x="2039.52" y="330" width="22" height="22" as="geometry"/>
                </mxCell>
                <mxCell id="117" value="Repo" style="rounded=0;whiteSpace=wrap;html=1;align=center;verticalAlign=top;fontFamily=Helvetica;fontSize=12;fontColor=#FFFFFF;labelBackgroundColor=none;fillColor=none;strokeColor=#FFFFFF;" parent="1" vertex="1">
                    <mxGeometry x="1821" y="456" width="337" height="142" as="geometry"/>
                </mxCell>
                <mxCell id="118" style="edgeStyle=none;shape=connector;rounded=1;html=1;strokeColor=#FFFFFF;align=center;verticalAlign=middle;fontFamily=Helvetica;fontSize=12;fontColor=#FFFFFF;labelBackgroundColor=none;endArrow=classic;" parent="1" target="120" edge="1">
                    <mxGeometry relative="1" as="geometry">
                        <mxPoint x="1922.003550686562" y="552.2783436417853" as="sourcePoint"/>
                    </mxGeometry>
                </mxCell>
                <mxCell id="119" value="f_products_save" style="edgeStyle=none;shape=connector;rounded=1;html=1;strokeColor=#FFFFFF;align=center;verticalAlign=middle;fontFamily=Helvetica;fontSize=12;fontColor=#FFFFFF;labelBackgroundColor=none;endArrow=classic;" parent="1" source="120" target="122" edge="1">
                    <mxGeometry x="-1" y="72" relative="1" as="geometry">
                        <mxPoint x="-72" y="69" as="offset"/>
                    </mxGeometry>
                </mxCell>
                <mxCell id="120" value="" style="ellipse;whiteSpace=wrap;html=1;aspect=fixed;rounded=0;strokeColor=none;align=center;verticalAlign=middle;fontFamily=Helvetica;fontSize=12;labelBackgroundColor=none;fillColor=#0050ef;fontColor=#ffffff;" parent="1" vertex="1">
                    <mxGeometry x="1954.7600000000002" y="571" width="22" height="22" as="geometry"/>
                </mxCell>
                <mxCell id="121" style="edgeStyle=none;shape=connector;rounded=1;html=1;strokeColor=#FFFFFF;align=center;verticalAlign=middle;fontFamily=Helvetica;fontSize=12;fontColor=#FFFFFF;labelBackgroundColor=none;endArrow=classic;" parent="1" source="122" target="123" edge="1">
                    <mxGeometry relative="1" as="geometry"/>
                </mxCell>
                <mxCell id="122" value="" style="ellipse;whiteSpace=wrap;html=1;aspect=fixed;rounded=0;strokeColor=none;align=center;verticalAlign=middle;fontFamily=Helvetica;fontSize=12;labelBackgroundColor=none;fillColor=#0050ef;fontColor=#ffffff;" parent="1" vertex="1">
                    <mxGeometry x="2064.76" y="571" width="22" height="22" as="geometry"/>
                </mxCell>
                <mxCell id="123" value="" style="ellipse;whiteSpace=wrap;html=1;aspect=fixed;rounded=0;strokeColor=#001DBC;align=center;verticalAlign=middle;fontFamily=Helvetica;fontSize=12;fontColor=#ffffff;labelBackgroundColor=none;fillColor=#0050ef;" parent="1" vertex="1">
                    <mxGeometry x="2126.76" y="531" width="22" height="22" as="geometry"/>
                </mxCell>
                <mxCell id="124" value="main" style="endArrow=none;rounded=1;strokeColor=#FFFFFF;align=center;verticalAlign=middle;fontFamily=Helvetica;fontSize=18;fontColor=#FFFFFF;labelBackgroundColor=none;edgeStyle=none;" parent="1" target="123" edge="1">
                    <mxGeometry x="-1" y="33" width="50" height="50" relative="1" as="geometry">
                        <mxPoint x="1892" y="540" as="sourcePoint"/>
                        <mxPoint x="2078.402" y="541.0000000000002" as="targetPoint"/>
                        <mxPoint x="-33" y="30" as="offset"/>
                    </mxGeometry>
                </mxCell>
                <mxCell id="125" value="" style="ellipse;aspect=fixed;rounded=0;strokeColor=none;align=center;verticalAlign=middle;fontFamily=Helvetica;fontSize=12;fontColor=#FFFFFF;labelBackgroundColor=none;fillColor=default;" parent="1" vertex="1">
                    <mxGeometry x="1909" y="530" width="22" height="22" as="geometry"/>
                </mxCell>
                <mxCell id="126" style="edgeStyle=none;shape=connector;rounded=1;html=1;strokeColor=#FFFFFF;align=center;verticalAlign=middle;fontFamily=Helvetica;fontSize=12;fontColor=#FFFFFF;labelBackgroundColor=none;endArrow=classic;" parent="1" target="128" edge="1">
                    <mxGeometry relative="1" as="geometry">
                        <mxPoint x="1924.0011226343859" y="529.4628466161693" as="sourcePoint"/>
                    </mxGeometry>
                </mxCell>
                <mxCell id="127" value="f_products_list" style="edgeStyle=none;shape=connector;rounded=1;html=1;strokeColor=#FFFFFF;align=center;verticalAlign=middle;fontFamily=Helvetica;fontSize=12;fontColor=#FFFFFF;labelBackgroundColor=none;endArrow=classic;" parent="1" source="128" target="130" edge="1">
                    <mxGeometry x="-1" y="72" relative="1" as="geometry">
                        <mxPoint x="-72" y="69" as="offset"/>
                    </mxGeometry>
                </mxCell>
                <mxCell id="128" value="" style="ellipse;whiteSpace=wrap;html=1;aspect=fixed;rounded=0;strokeColor=none;align=center;verticalAlign=middle;fontFamily=Helvetica;fontSize=12;labelBackgroundColor=none;fillColor=#60a917;fontColor=#ffffff;" parent="1" vertex="1">
                    <mxGeometry x="1977.52" y="478" width="22" height="22" as="geometry"/>
                </mxCell>
                <mxCell id="129" style="edgeStyle=none;shape=connector;rounded=1;html=1;strokeColor=#FFFFFF;align=center;verticalAlign=middle;fontFamily=Helvetica;fontSize=12;fontColor=#FFFFFF;labelBackgroundColor=none;endArrow=classic;" parent="1" source="130" target="131" edge="1">
                    <mxGeometry relative="1" as="geometry">
                        <mxPoint x="2112" y="530" as="targetPoint"/>
                    </mxGeometry>
                </mxCell>
                <mxCell id="130" value="" style="ellipse;whiteSpace=wrap;html=1;aspect=fixed;rounded=0;strokeColor=none;align=center;verticalAlign=middle;fontFamily=Helvetica;fontSize=12;labelBackgroundColor=none;fillColor=#60a917;fontColor=#ffffff;" parent="1" vertex="1">
                    <mxGeometry x="2037.52" y="478" width="22" height="22" as="geometry"/>
                </mxCell>
                <mxCell id="131" value="" style="ellipse;whiteSpace=wrap;html=1;aspect=fixed;rounded=0;strokeColor=none;align=center;verticalAlign=middle;fontFamily=Helvetica;fontSize=12;fontColor=#ffffff;labelBackgroundColor=none;fillColor=#60a917;" parent="1" vertex="1">
                    <mxGeometry x="2061.52" y="530" width="22" height="22" as="geometry"/>
                </mxCell>
                <mxCell id="132" value="pull" style="edgeStyle=none;shape=connector;rounded=1;entryX=1.011;entryY=0.065;entryDx=0;entryDy=0;strokeColor=#d79b00;align=center;verticalAlign=middle;fontFamily=Helvetica;fontSize=28;fontColor=#D79B00;labelBackgroundColor=none;endArrow=none;fontStyle=1;exitX=0;exitY=1;exitDx=0;exitDy=0;fillColor=#ffe6cc;entryPerimeter=0;strokeWidth=2;startArrow=classic;startFill=1;endFill=0;" parent="1" source="101" target="92" edge="1">
                    <mxGeometry x="-0.2899" y="-30" relative="1" as="geometry">
                        <mxPoint x="1626" y="395" as="sourcePoint"/>
                        <mxPoint x="1616.788" y="685.0120000000002" as="targetPoint"/>
                        <mxPoint y="-1" as="offset"/>
                    </mxGeometry>
                </mxCell>
                <mxCell id="143" value="merge" style="text;align=center;verticalAlign=middle;rounded=0;fontFamily=Helvetica;fontSize=28;fontColor=#D79B00;labelBackgroundColor=none;fontStyle=1" parent="1" vertex="1">
                    <mxGeometry x="1875" y="401" width="60" height="30" as="geometry"/>
                </mxCell>
                <mxCell id="144" value="push" style="edgeStyle=none;shape=connector;rounded=1;entryX=0.613;entryY=0;entryDx=0;entryDy=0;strokeColor=#d79b00;align=center;verticalAlign=middle;fontFamily=Helvetica;fontSize=28;fontColor=#D79B00;labelBackgroundColor=none;endArrow=classic;fontStyle=1;exitX=0.75;exitY=0;exitDx=0;exitDy=0;fillColor=#ffe6cc;entryPerimeter=0;strokeWidth=2;" parent="1" edge="1">
                    <mxGeometry x="-0.2735" y="-23" relative="1" as="geometry">
                        <mxPoint x="2096" y="395" as="sourcePoint"/>
                        <mxPoint x="2095.581" y="456" as="targetPoint"/>
                        <mxPoint as="offset"/>
                    </mxGeometry>
                </mxCell>
                <mxCell id="145" value="Repo" style="rounded=0;whiteSpace=wrap;html=1;align=center;verticalAlign=top;fontFamily=Helvetica;fontSize=12;fontColor=#FFFFFF;labelBackgroundColor=none;fillColor=none;strokeColor=#FFFFFF;" parent="1" vertex="1">
                    <mxGeometry x="1912" y="675" width="337" height="142" as="geometry"/>
                </mxCell>
                <mxCell id="146" style="edgeStyle=none;shape=connector;rounded=1;html=1;strokeColor=#FFFFFF;align=center;verticalAlign=middle;fontFamily=Helvetica;fontSize=12;fontColor=#FFFFFF;labelBackgroundColor=none;endArrow=classic;" parent="1" target="148" edge="1">
                    <mxGeometry relative="1" as="geometry">
                        <mxPoint x="2013.003550686562" y="771.2783436417853" as="sourcePoint"/>
                    </mxGeometry>
                </mxCell>
                <mxCell id="147" value="f_products_save" style="edgeStyle=none;shape=connector;rounded=1;html=1;strokeColor=#FFFFFF;align=center;verticalAlign=middle;fontFamily=Helvetica;fontSize=12;fontColor=#FFFFFF;labelBackgroundColor=none;endArrow=classic;" parent="1" source="148" target="150" edge="1">
                    <mxGeometry x="-1" y="72" relative="1" as="geometry">
                        <mxPoint x="-72" y="69" as="offset"/>
                    </mxGeometry>
                </mxCell>
                <mxCell id="148" value="" style="ellipse;whiteSpace=wrap;html=1;aspect=fixed;rounded=0;strokeColor=none;align=center;verticalAlign=middle;fontFamily=Helvetica;fontSize=12;labelBackgroundColor=none;fillColor=#0050ef;fontColor=#ffffff;" parent="1" vertex="1">
                    <mxGeometry x="2045.7600000000002" y="790" width="22" height="22" as="geometry"/>
                </mxCell>
                <mxCell id="149" style="edgeStyle=none;shape=connector;rounded=1;html=1;strokeColor=#FFFFFF;align=center;verticalAlign=middle;fontFamily=Helvetica;fontSize=12;fontColor=#FFFFFF;labelBackgroundColor=none;endArrow=classic;" parent="1" source="150" target="151" edge="1">
                    <mxGeometry relative="1" as="geometry"/>
                </mxCell>
                <mxCell id="150" value="" style="ellipse;whiteSpace=wrap;html=1;aspect=fixed;rounded=0;strokeColor=none;align=center;verticalAlign=middle;fontFamily=Helvetica;fontSize=12;labelBackgroundColor=none;fillColor=#0050ef;fontColor=#ffffff;" parent="1" vertex="1">
                    <mxGeometry x="2155.76" y="790" width="22" height="22" as="geometry"/>
                </mxCell>
                <mxCell id="151" value="" style="ellipse;whiteSpace=wrap;html=1;aspect=fixed;rounded=0;strokeColor=#001DBC;align=center;verticalAlign=middle;fontFamily=Helvetica;fontSize=12;fontColor=#ffffff;labelBackgroundColor=none;fillColor=#0050ef;" parent="1" vertex="1">
                    <mxGeometry x="2217.76" y="750" width="22" height="22" as="geometry"/>
                </mxCell>
                <mxCell id="152" value="main" style="endArrow=none;rounded=1;strokeColor=#FFFFFF;align=center;verticalAlign=middle;fontFamily=Helvetica;fontSize=18;fontColor=#FFFFFF;labelBackgroundColor=none;edgeStyle=none;" parent="1" target="151" edge="1">
                    <mxGeometry x="-1" y="33" width="50" height="50" relative="1" as="geometry">
                        <mxPoint x="1983" y="759" as="sourcePoint"/>
                        <mxPoint x="2169.402" y="760.0000000000002" as="targetPoint"/>
                        <mxPoint x="-33" y="30" as="offset"/>
                    </mxGeometry>
                </mxCell>
                <mxCell id="153" value="" style="ellipse;aspect=fixed;rounded=0;strokeColor=none;align=center;verticalAlign=middle;fontFamily=Helvetica;fontSize=12;fontColor=#FFFFFF;labelBackgroundColor=none;fillColor=default;" parent="1" vertex="1">
                    <mxGeometry x="2000" y="749" width="22" height="22" as="geometry"/>
                </mxCell>
                <mxCell id="154" style="edgeStyle=none;shape=connector;rounded=1;html=1;strokeColor=#FFFFFF;align=center;verticalAlign=middle;fontFamily=Helvetica;fontSize=12;fontColor=#FFFFFF;labelBackgroundColor=none;endArrow=classic;" parent="1" target="156" edge="1">
                    <mxGeometry relative="1" as="geometry">
                        <mxPoint x="2015.0011226343859" y="748.4628466161693" as="sourcePoint"/>
                    </mxGeometry>
                </mxCell>
                <mxCell id="155" value="f_products_list" style="edgeStyle=none;shape=connector;rounded=1;html=1;strokeColor=#FFFFFF;align=center;verticalAlign=middle;fontFamily=Helvetica;fontSize=12;fontColor=#FFFFFF;labelBackgroundColor=none;endArrow=classic;" parent="1" source="156" target="158" edge="1">
                    <mxGeometry x="-1" y="72" relative="1" as="geometry">
                        <mxPoint x="-72" y="69" as="offset"/>
                    </mxGeometry>
                </mxCell>
                <mxCell id="156" value="" style="ellipse;whiteSpace=wrap;html=1;aspect=fixed;rounded=0;strokeColor=none;align=center;verticalAlign=middle;fontFamily=Helvetica;fontSize=12;labelBackgroundColor=none;fillColor=#60a917;fontColor=#ffffff;" parent="1" vertex="1">
                    <mxGeometry x="2068.52" y="697" width="22" height="22" as="geometry"/>
                </mxCell>
                <mxCell id="157" style="edgeStyle=none;shape=connector;rounded=1;html=1;strokeColor=#FFFFFF;align=center;verticalAlign=middle;fontFamily=Helvetica;fontSize=12;fontColor=#FFFFFF;labelBackgroundColor=none;endArrow=classic;" parent="1" source="158" target="159" edge="1">
                    <mxGeometry relative="1" as="geometry">
                        <mxPoint x="2203" y="749" as="targetPoint"/>
                    </mxGeometry>
                </mxCell>
                <mxCell id="158" value="" style="ellipse;whiteSpace=wrap;html=1;aspect=fixed;rounded=0;strokeColor=none;align=center;verticalAlign=middle;fontFamily=Helvetica;fontSize=12;labelBackgroundColor=none;fillColor=#60a917;fontColor=#ffffff;" parent="1" vertex="1">
                    <mxGeometry x="2128.52" y="697" width="22" height="22" as="geometry"/>
                </mxCell>
                <mxCell id="159" value="" style="ellipse;whiteSpace=wrap;html=1;aspect=fixed;rounded=0;strokeColor=none;align=center;verticalAlign=middle;fontFamily=Helvetica;fontSize=12;fontColor=#ffffff;labelBackgroundColor=none;fillColor=#60a917;" parent="1" vertex="1">
                    <mxGeometry x="2152.52" y="749" width="22" height="22" as="geometry"/>
                </mxCell>
                <mxCell id="160" value="push" style="edgeStyle=none;shape=connector;rounded=1;entryX=0.75;entryY=0;entryDx=0;entryDy=0;strokeColor=#d79b00;align=center;verticalAlign=middle;fontFamily=Helvetica;fontSize=28;fontColor=#D79B00;labelBackgroundColor=none;endArrow=classic;fontStyle=1;exitX=1;exitY=0.5;exitDx=0;exitDy=0;fillColor=#ffe6cc;strokeWidth=2;" parent="1" target="145" edge="1" source="101">
                    <mxGeometry x="-0.7685" y="29" relative="1" as="geometry">
                        <mxPoint x="2216" y="396" as="sourcePoint"/>
                        <mxPoint x="2215.581" y="457" as="targetPoint"/>
                        <mxPoint as="offset"/>
                        <Array as="points">
                            <mxPoint x="2231" y="429"/>
                        </Array>
                    </mxGeometry>
                </mxCell>
                <mxCell id="161" value="Repo" style="rounded=0;whiteSpace=wrap;html=1;align=center;verticalAlign=top;fontFamily=Helvetica;fontSize=12;fontColor=#FFFFFF;labelBackgroundColor=none;fillColor=none;strokeColor=#FFFFFF;" parent="1" vertex="1">
                    <mxGeometry x="2350" y="73" width="337" height="142" as="geometry"/>
                </mxCell>
                <mxCell id="162" style="edgeStyle=none;shape=connector;rounded=1;html=1;strokeColor=#FFFFFF;align=center;verticalAlign=middle;fontFamily=Helvetica;fontSize=12;fontColor=#FFFFFF;labelBackgroundColor=none;endArrow=classic;" parent="1" target="164" edge="1">
                    <mxGeometry relative="1" as="geometry">
                        <mxPoint x="2451.003550686562" y="169.27834364178534" as="sourcePoint"/>
                    </mxGeometry>
                </mxCell>
                <mxCell id="163" value="f_products_save" style="edgeStyle=none;shape=connector;rounded=1;html=1;strokeColor=#FFFFFF;align=center;verticalAlign=middle;fontFamily=Helvetica;fontSize=12;fontColor=#FFFFFF;labelBackgroundColor=none;endArrow=classic;" parent="1" source="164" target="166" edge="1">
                    <mxGeometry x="-1" y="72" relative="1" as="geometry">
                        <mxPoint x="-72" y="69" as="offset"/>
                    </mxGeometry>
                </mxCell>
                <mxCell id="164" value="" style="ellipse;whiteSpace=wrap;html=1;aspect=fixed;rounded=0;strokeColor=none;align=center;verticalAlign=middle;fontFamily=Helvetica;fontSize=12;labelBackgroundColor=none;fillColor=#0050ef;fontColor=#ffffff;" parent="1" vertex="1">
                    <mxGeometry x="2483.76" y="188" width="22" height="22" as="geometry"/>
                </mxCell>
                <mxCell id="165" style="edgeStyle=none;shape=connector;rounded=1;html=1;strokeColor=#FFFFFF;align=center;verticalAlign=middle;fontFamily=Helvetica;fontSize=12;fontColor=#FFFFFF;labelBackgroundColor=none;endArrow=classic;" parent="1" source="166" target="167" edge="1">
                    <mxGeometry relative="1" as="geometry"/>
                </mxCell>
                <mxCell id="166" value="" style="ellipse;whiteSpace=wrap;html=1;aspect=fixed;rounded=0;strokeColor=none;align=center;verticalAlign=middle;fontFamily=Helvetica;fontSize=12;labelBackgroundColor=none;fillColor=#0050ef;fontColor=#ffffff;" parent="1" vertex="1">
                    <mxGeometry x="2593.76" y="188" width="22" height="22" as="geometry"/>
                </mxCell>
                <mxCell id="167" value="" style="ellipse;whiteSpace=wrap;html=1;aspect=fixed;rounded=0;strokeColor=#001DBC;align=center;verticalAlign=middle;fontFamily=Helvetica;fontSize=12;fontColor=#ffffff;labelBackgroundColor=none;fillColor=#0050ef;" parent="1" vertex="1">
                    <mxGeometry x="2655.76" y="148" width="22" height="22" as="geometry"/>
                </mxCell>
                <mxCell id="168" value="main" style="endArrow=none;rounded=1;strokeColor=#FFFFFF;align=center;verticalAlign=middle;fontFamily=Helvetica;fontSize=18;fontColor=#FFFFFF;labelBackgroundColor=none;edgeStyle=none;" parent="1" target="167" edge="1">
                    <mxGeometry x="-1" y="33" width="50" height="50" relative="1" as="geometry">
                        <mxPoint x="2421" y="157" as="sourcePoint"/>
                        <mxPoint x="2607.402" y="158.00000000000023" as="targetPoint"/>
                        <mxPoint x="-33" y="30" as="offset"/>
                    </mxGeometry>
                </mxCell>
                <mxCell id="169" value="" style="ellipse;aspect=fixed;rounded=0;strokeColor=none;align=center;verticalAlign=middle;fontFamily=Helvetica;fontSize=12;fontColor=#FFFFFF;labelBackgroundColor=none;fillColor=default;" parent="1" vertex="1">
                    <mxGeometry x="2438" y="147" width="22" height="22" as="geometry"/>
                </mxCell>
                <mxCell id="170" style="edgeStyle=none;shape=connector;rounded=1;html=1;strokeColor=#FFFFFF;align=center;verticalAlign=middle;fontFamily=Helvetica;fontSize=12;fontColor=#FFFFFF;labelBackgroundColor=none;endArrow=classic;" parent="1" target="172" edge="1">
                    <mxGeometry relative="1" as="geometry">
                        <mxPoint x="2453.001122634386" y="146.46284661616926" as="sourcePoint"/>
                    </mxGeometry>
                </mxCell>
                <mxCell id="171" value="f_products_list" style="edgeStyle=none;shape=connector;rounded=1;html=1;strokeColor=#FFFFFF;align=center;verticalAlign=middle;fontFamily=Helvetica;fontSize=12;fontColor=#FFFFFF;labelBackgroundColor=none;endArrow=classic;" parent="1" source="172" target="174" edge="1">
                    <mxGeometry x="-1" y="72" relative="1" as="geometry">
                        <mxPoint x="-72" y="69" as="offset"/>
                    </mxGeometry>
                </mxCell>
                <mxCell id="172" value="" style="ellipse;whiteSpace=wrap;html=1;aspect=fixed;rounded=0;strokeColor=none;align=center;verticalAlign=middle;fontFamily=Helvetica;fontSize=12;labelBackgroundColor=none;fillColor=#60a917;fontColor=#ffffff;" parent="1" vertex="1">
                    <mxGeometry x="2506.52" y="95" width="22" height="22" as="geometry"/>
                </mxCell>
                <mxCell id="173" style="edgeStyle=none;shape=connector;rounded=1;html=1;strokeColor=#FFFFFF;align=center;verticalAlign=middle;fontFamily=Helvetica;fontSize=12;fontColor=#FFFFFF;labelBackgroundColor=none;endArrow=classic;" parent="1" source="174" target="175" edge="1">
                    <mxGeometry relative="1" as="geometry">
                        <mxPoint x="2641" y="147" as="targetPoint"/>
                    </mxGeometry>
                </mxCell>
                <mxCell id="174" value="" style="ellipse;whiteSpace=wrap;html=1;aspect=fixed;rounded=0;strokeColor=none;align=center;verticalAlign=middle;fontFamily=Helvetica;fontSize=12;labelBackgroundColor=none;fillColor=#60a917;fontColor=#ffffff;" parent="1" vertex="1">
                    <mxGeometry x="2566.52" y="95" width="22" height="22" as="geometry"/>
                </mxCell>
                <mxCell id="175" value="" style="ellipse;whiteSpace=wrap;html=1;aspect=fixed;rounded=0;strokeColor=none;align=center;verticalAlign=middle;fontFamily=Helvetica;fontSize=12;fontColor=#ffffff;labelBackgroundColor=none;fillColor=#60a917;" parent="1" vertex="1">
                    <mxGeometry x="2590.52" y="147" width="22" height="22" as="geometry"/>
                </mxCell>
                <mxCell id="176" value="pull" style="edgeStyle=none;shape=connector;rounded=1;html=1;entryX=0.956;entryY=-0.027;entryDx=0;entryDy=0;strokeColor=#d79b00;align=center;verticalAlign=middle;fontFamily=Helvetica;fontSize=28;fontColor=#D79B00;labelBackgroundColor=none;endArrow=none;fontStyle=1;exitX=0.656;exitY=1.035;exitDx=0;exitDy=0;fillColor=#ffe6cc;entryPerimeter=0;strokeWidth=2;startArrow=classic;startFill=1;endFill=0;exitPerimeter=0;" parent="1" edge="1" target="145" source="161">
                    <mxGeometry x="-0.5574" y="-28" relative="1" as="geometry">
                        <mxPoint x="2376" y="195" as="sourcePoint"/>
                        <mxPoint x="2377" y="684" as="targetPoint"/>
                        <mxPoint as="offset"/>
                    </mxGeometry>
                </mxCell>
                <mxCell id="178" value="merge" style="text;align=center;verticalAlign=middle;rounded=0;fontFamily=Helvetica;fontSize=28;fontColor=#D79B00;labelBackgroundColor=none;fontStyle=1" parent="1" vertex="1">
                    <mxGeometry x="1038" y="209" width="60" height="30" as="geometry"/>
                </mxCell>
                <mxCell id="179" value="Implements" style="text;align=center;verticalAlign=middle;rounded=0;fontFamily=Helvetica;fontSize=28;fontColor=#D79B00;labelBackgroundColor=none;fontStyle=1" vertex="1" parent="1">
                    <mxGeometry x="1515" y="239" width="60" height="30" as="geometry"/>
                </mxCell>
                <mxCell id="181" style="edgeStyle=none;shape=connector;rounded=1;html=1;strokeColor=#FFFFFF;align=center;verticalAlign=middle;fontFamily=Helvetica;fontSize=12;fontColor=#FFFFFF;labelBackgroundColor=none;endArrow=classic;" edge="1" parent="1" target="183">
                    <mxGeometry relative="1" as="geometry">
                        <mxPoint x="800.0011226343856" y="179.46284661616926" as="sourcePoint"/>
                    </mxGeometry>
                </mxCell>
                <mxCell id="182" value="f_products_list" style="edgeStyle=none;shape=connector;rounded=1;html=1;strokeColor=#FFFFFF;align=center;verticalAlign=middle;fontFamily=Helvetica;fontSize=12;fontColor=#FFFFFF;labelBackgroundColor=none;endArrow=classic;" edge="1" parent="1" source="183" target="185">
                    <mxGeometry x="-1" y="72" relative="1" as="geometry">
                        <mxPoint x="-72" y="69" as="offset"/>
                    </mxGeometry>
                </mxCell>
                <mxCell id="183" value="" style="ellipse;whiteSpace=wrap;html=1;aspect=fixed;rounded=0;strokeColor=none;align=center;verticalAlign=middle;fontFamily=Helvetica;fontSize=12;labelBackgroundColor=none;fillColor=#60a917;fontColor=#ffffff;" vertex="1" parent="1">
                    <mxGeometry x="823.52" y="108" width="22" height="22" as="geometry"/>
                </mxCell>
                <mxCell id="185" value="" style="ellipse;whiteSpace=wrap;html=1;aspect=fixed;rounded=0;strokeColor=none;align=center;verticalAlign=middle;fontFamily=Helvetica;fontSize=12;labelBackgroundColor=none;fillColor=#60a917;fontColor=#ffffff;" vertex="1" parent="1">
                    <mxGeometry x="903.52" y="108" width="22" height="22" as="geometry"/>
                </mxCell>
                <mxCell id="186" value="main" style="endArrow=none;rounded=1;strokeColor=#FFFFFF;align=center;verticalAlign=middle;fontFamily=Helvetica;fontSize=18;fontColor=#FFFFFF;labelBackgroundColor=none;edgeStyle=none;" edge="1" parent="1">
                    <mxGeometry x="-1" y="33" width="50" height="50" relative="1" as="geometry">
                        <mxPoint x="770" y="188" as="sourcePoint"/>
                        <mxPoint x="912" y="189" as="targetPoint"/>
                        <mxPoint x="-33" y="30" as="offset"/>
                    </mxGeometry>
                </mxCell>
                <mxCell id="187" value="" style="ellipse;aspect=fixed;rounded=0;strokeColor=none;align=center;verticalAlign=middle;fontFamily=Helvetica;fontSize=12;fontColor=#FFFFFF;labelBackgroundColor=none;fillColor=default;" vertex="1" parent="1">
                    <mxGeometry x="787" y="178" width="22" height="22" as="geometry"/>
                </mxCell>
                <mxCell id="190" value="Implements" style="text;align=center;verticalAlign=middle;rounded=0;fontFamily=Helvetica;fontSize=28;fontColor=#D79B00;labelBackgroundColor=none;fontStyle=1" vertex="1" parent="1">
                    <mxGeometry x="723" y="44" width="123" height="30" as="geometry"/>
                </mxCell>
                <mxCell id="191" value="" style="endArrow=none;html=1;rounded=1;strokeColor=#FFFFFF;align=center;verticalAlign=middle;fontFamily=Helvetica;fontSize=12;fontColor=#FFFFFF;labelBackgroundColor=none;edgeStyle=none;" edge="1" parent="1">
                    <mxGeometry width="50" height="50" relative="1" as="geometry">
                        <mxPoint x="1443" y="842.7058823529412" as="sourcePoint"/>
                        <mxPoint x="1448" y="33" as="targetPoint"/>
                    </mxGeometry>
                </mxCell>
                <mxCell id="192" value="" style="endArrow=none;html=1;rounded=1;strokeColor=#FFFFFF;align=center;verticalAlign=middle;fontFamily=Helvetica;fontSize=12;fontColor=#FFFFFF;labelBackgroundColor=none;edgeStyle=none;" edge="1" parent="1">
                    <mxGeometry width="50" height="50" relative="1" as="geometry">
                        <mxPoint x="18" y="48" as="sourcePoint"/>
                        <mxPoint x="3281" y="54" as="targetPoint"/>
                    </mxGeometry>
                </mxCell>
                <mxCell id="193" value="START" style="text;align=center;verticalAlign=middle;rounded=0;fontFamily=Helvetica;fontSize=27;fontColor=#9999FF;labelBackgroundColor=none;fontStyle=1" vertex="1" parent="1">
                    <mxGeometry x="383" y="11" width="185" height="30" as="geometry"/>
                </mxCell>
                <mxCell id="194" value="DEPLOY 1" style="text;align=center;verticalAlign=middle;rounded=0;fontFamily=Helvetica;fontSize=27;fontColor=#9999FF;labelBackgroundColor=none;fontStyle=1" vertex="1" parent="1">
                    <mxGeometry x="973" y="11" width="185" height="30" as="geometry"/>
                </mxCell>
                <mxCell id="195" value="DEPLOY 2" style="text;align=center;verticalAlign=middle;rounded=0;fontFamily=Helvetica;fontSize=27;fontColor=#9999FF;labelBackgroundColor=none;fontStyle=1" vertex="1" parent="1">
                    <mxGeometry x="1913" y="11" width="185" height="30" as="geometry"/>
                </mxCell>
                <mxCell id="197" value="Repo" style="rounded=0;whiteSpace=wrap;html=1;align=center;verticalAlign=top;fontFamily=Helvetica;fontSize=12;fontColor=#FFFFFF;labelBackgroundColor=none;fillColor=none;strokeColor=#FFFFFF;" vertex="1" parent="1">
                    <mxGeometry x="2730" y="73" width="354" height="142" as="geometry"/>
                </mxCell>
                <mxCell id="198" style="edgeStyle=none;shape=connector;rounded=1;html=1;strokeColor=#FFFFFF;align=center;verticalAlign=middle;fontFamily=Helvetica;fontSize=12;fontColor=#FFFFFF;labelBackgroundColor=none;endArrow=classic;" edge="1" parent="1" target="200">
                    <mxGeometry relative="1" as="geometry">
                        <mxPoint x="2831.003550686562" y="169.27834364178534" as="sourcePoint"/>
                    </mxGeometry>
                </mxCell>
                <mxCell id="199" value="f_products_save" style="edgeStyle=none;shape=connector;rounded=1;html=1;strokeColor=#FFFFFF;align=center;verticalAlign=middle;fontFamily=Helvetica;fontSize=12;fontColor=#FFFFFF;labelBackgroundColor=none;endArrow=classic;" edge="1" parent="1" source="200" target="202">
                    <mxGeometry x="-1" y="72" relative="1" as="geometry">
                        <mxPoint x="-72" y="69" as="offset"/>
                    </mxGeometry>
                </mxCell>
                <mxCell id="200" value="" style="ellipse;whiteSpace=wrap;html=1;aspect=fixed;rounded=0;strokeColor=none;align=center;verticalAlign=middle;fontFamily=Helvetica;fontSize=12;labelBackgroundColor=none;fillColor=#0050ef;fontColor=#ffffff;" vertex="1" parent="1">
                    <mxGeometry x="2863.76" y="188" width="22" height="22" as="geometry"/>
                </mxCell>
                <mxCell id="201" style="edgeStyle=none;shape=connector;rounded=1;html=1;strokeColor=#FFFFFF;align=center;verticalAlign=middle;fontFamily=Helvetica;fontSize=12;fontColor=#FFFFFF;labelBackgroundColor=none;endArrow=classic;" edge="1" parent="1" source="202" target="203">
                    <mxGeometry relative="1" as="geometry"/>
                </mxCell>
                <mxCell id="202" value="" style="ellipse;whiteSpace=wrap;html=1;aspect=fixed;rounded=0;strokeColor=none;align=center;verticalAlign=middle;fontFamily=Helvetica;fontSize=12;labelBackgroundColor=none;fillColor=#0050ef;fontColor=#ffffff;" vertex="1" parent="1">
                    <mxGeometry x="2913.76" y="188" width="22" height="22" as="geometry"/>
                </mxCell>
                <mxCell id="204" value="main" style="endArrow=none;rounded=1;strokeColor=#FFFFFF;align=center;verticalAlign=middle;fontFamily=Helvetica;fontSize=18;fontColor=#FFFFFF;labelBackgroundColor=none;edgeStyle=none;entryX=0;entryY=0.5;entryDx=0;entryDy=0;" edge="1" parent="1">
                    <mxGeometry x="-1" y="33" width="50" height="50" relative="1" as="geometry">
                        <mxPoint x="2801" y="157" as="sourcePoint"/>
                        <mxPoint x="3070.520000000011" y="157.99999999999994" as="targetPoint"/>
                        <mxPoint x="-33" y="30" as="offset"/>
                    </mxGeometry>
                </mxCell>
                <mxCell id="205" value="" style="ellipse;aspect=fixed;rounded=0;strokeColor=none;align=center;verticalAlign=middle;fontFamily=Helvetica;fontSize=12;fontColor=#FFFFFF;labelBackgroundColor=none;fillColor=default;" vertex="1" parent="1">
                    <mxGeometry x="2818" y="147" width="22" height="22" as="geometry"/>
                </mxCell>
                <mxCell id="206" style="edgeStyle=none;shape=connector;rounded=1;html=1;strokeColor=#FFFFFF;align=center;verticalAlign=middle;fontFamily=Helvetica;fontSize=12;fontColor=#FFFFFF;labelBackgroundColor=none;endArrow=classic;" edge="1" parent="1" target="208">
                    <mxGeometry relative="1" as="geometry">
                        <mxPoint x="2833.001122634386" y="146.46284661616926" as="sourcePoint"/>
                    </mxGeometry>
                </mxCell>
                <mxCell id="207" value="f_products_list" style="edgeStyle=none;shape=connector;rounded=1;html=1;strokeColor=#FFFFFF;align=center;verticalAlign=middle;fontFamily=Helvetica;fontSize=12;fontColor=#FFFFFF;labelBackgroundColor=none;endArrow=classic;" edge="1" parent="1" source="208" target="210">
                    <mxGeometry x="-1" y="72" relative="1" as="geometry">
                        <mxPoint x="-72" y="69" as="offset"/>
                    </mxGeometry>
                </mxCell>
                <mxCell id="208" value="" style="ellipse;whiteSpace=wrap;html=1;aspect=fixed;rounded=0;strokeColor=none;align=center;verticalAlign=middle;fontFamily=Helvetica;fontSize=12;labelBackgroundColor=none;fillColor=#60a917;fontColor=#ffffff;" vertex="1" parent="1">
                    <mxGeometry x="2846.52" y="95" width="22" height="22" as="geometry"/>
                </mxCell>
                <mxCell id="209" style="edgeStyle=none;shape=connector;rounded=1;html=1;strokeColor=#FFFFFF;align=center;verticalAlign=middle;fontFamily=Helvetica;fontSize=12;fontColor=#FFFFFF;labelBackgroundColor=none;endArrow=classic;" edge="1" parent="1" source="210" target="211">
                    <mxGeometry relative="1" as="geometry">
                        <mxPoint x="3021" y="147" as="targetPoint"/>
                    </mxGeometry>
                </mxCell>
                <mxCell id="210" value="" style="ellipse;whiteSpace=wrap;html=1;aspect=fixed;rounded=0;strokeColor=none;align=center;verticalAlign=middle;fontFamily=Helvetica;fontSize=12;labelBackgroundColor=none;fillColor=#60a917;fontColor=#ffffff;" vertex="1" parent="1">
                    <mxGeometry x="2896.52" y="95" width="22" height="22" as="geometry"/>
                </mxCell>
                <mxCell id="211" value="" style="ellipse;whiteSpace=wrap;html=1;aspect=fixed;rounded=0;strokeColor=none;align=center;verticalAlign=middle;fontFamily=Helvetica;fontSize=12;fontColor=#ffffff;labelBackgroundColor=none;fillColor=#60a917;" vertex="1" parent="1">
                    <mxGeometry x="2920.52" y="147" width="22" height="22" as="geometry"/>
                </mxCell>
                <mxCell id="212" value="implements" style="text;align=center;verticalAlign=middle;rounded=0;fontFamily=Helvetica;fontSize=28;fontColor=#D79B00;labelBackgroundColor=none;fontStyle=1" vertex="1" parent="1">
                    <mxGeometry x="2820" y="212" width="186" height="30" as="geometry"/>
                </mxCell>
                <mxCell id="213" value="" style="endArrow=none;html=1;rounded=1;strokeColor=#FFFFFF;align=center;verticalAlign=middle;fontFamily=Helvetica;fontSize=12;fontColor=#FFFFFF;labelBackgroundColor=none;edgeStyle=none;" edge="1" parent="1">
                    <mxGeometry width="50" height="50" relative="1" as="geometry">
                        <mxPoint x="2323" y="842.7058823529412" as="sourcePoint"/>
                        <mxPoint x="2326" y="9" as="targetPoint"/>
                    </mxGeometry>
                </mxCell>
                <mxCell id="214" value="DEPLOY N ..." style="text;align=center;verticalAlign=middle;rounded=0;fontFamily=Helvetica;fontSize=27;fontColor=#9999FF;labelBackgroundColor=none;fontStyle=1" vertex="1" parent="1">
                    <mxGeometry x="2713" y="11" width="185" height="30" as="geometry"/>
                </mxCell>
                <mxCell id="215" style="edgeStyle=none;shape=connector;rounded=1;html=1;strokeColor=#FFFFFF;align=center;verticalAlign=middle;fontFamily=Helvetica;fontSize=12;fontColor=#FFFFFF;labelBackgroundColor=none;endArrow=classic;exitX=0.708;exitY=0.106;exitDx=0;exitDy=0;exitPerimeter=0;" edge="1" parent="1" target="216" source="203">
                    <mxGeometry relative="1" as="geometry">
                        <mxPoint x="2983.001122634386" y="146.46284661616926" as="sourcePoint"/>
                    </mxGeometry>
                </mxCell>
                <mxCell id="219" style="edgeStyle=none;html=1;strokeColor=#FFFFFF;" edge="1" parent="1" source="216" target="217">
                    <mxGeometry relative="1" as="geometry"/>
                </mxCell>
                <mxCell id="216" value="" style="ellipse;whiteSpace=wrap;html=1;aspect=fixed;rounded=0;strokeColor=#C73500;align=center;verticalAlign=middle;fontFamily=Helvetica;fontSize=12;labelBackgroundColor=none;fillColor=#fa6800;fontColor=#000000;" vertex="1" parent="1">
                    <mxGeometry x="2976.52" y="95" width="22" height="22" as="geometry"/>
                </mxCell>
                <mxCell id="217" value="" style="ellipse;whiteSpace=wrap;html=1;aspect=fixed;rounded=0;strokeColor=#C73500;align=center;verticalAlign=middle;fontFamily=Helvetica;fontSize=12;labelBackgroundColor=none;fillColor=#fa6800;fontColor=#000000;" vertex="1" parent="1">
                    <mxGeometry x="3026.52" y="95" width="22" height="22" as="geometry"/>
                </mxCell>
                <mxCell id="203" value="" style="ellipse;whiteSpace=wrap;html=1;aspect=fixed;rounded=0;strokeColor=#001DBC;align=center;verticalAlign=middle;fontFamily=Helvetica;fontSize=12;fontColor=#ffffff;labelBackgroundColor=none;fillColor=#0050ef;" vertex="1" parent="1">
                    <mxGeometry x="2955.76" y="148" width="22" height="22" as="geometry"/>
                </mxCell>
                <mxCell id="221" value="..." style="text;align=center;verticalAlign=middle;rounded=0;fontFamily=Helvetica;fontSize=68;fontColor=#D79B00;labelBackgroundColor=none;fontStyle=1" vertex="1" parent="1">
                    <mxGeometry x="3171" y="110" width="60" height="75" as="geometry"/>
                </mxCell>
                <mxCell id="222" value="..." style="text;align=center;verticalAlign=middle;rounded=0;fontFamily=Helvetica;fontSize=68;fontColor=#D79B00;labelBackgroundColor=none;fontStyle=1" vertex="1" parent="1">
                    <mxGeometry x="3171" y="280" width="60" height="75" as="geometry"/>
                </mxCell>
                <mxCell id="223" value="..." style="text;align=center;verticalAlign=middle;rounded=0;fontFamily=Helvetica;fontSize=68;fontColor=#D79B00;labelBackgroundColor=none;fontStyle=1" vertex="1" parent="1">
                    <mxGeometry x="3161" y="510" width="60" height="75" as="geometry"/>
                </mxCell>
                <mxCell id="224" value="..." style="text;align=center;verticalAlign=middle;rounded=0;fontFamily=Helvetica;fontSize=68;fontColor=#D79B00;labelBackgroundColor=none;fontStyle=1" vertex="1" parent="1">
                    <mxGeometry x="3171" y="730" width="60" height="75" as="geometry"/>
                </mxCell>
            </root>
        </mxGraphModel>
    </diagram>
</mxfile>